<svg width="1600" height="1000" viewBox="0 0 1600 1000" fill="none" xmlns="http://www.w3.org/2000/svg">
  <defs>
    <linearGradient id="bg" x1="145" y1="82" x2="1444" y2="939" gradientUnits="userSpaceOnUse">
      <stop offset="0" stop-color="#203246"/>
      <stop offset="0.48" stop-color="#141F2E"/>
      <stop offset="1" stop-color="#101924"/>
    </linearGradient>
    <linearGradient id="neon" x1="222" y1="162" x2="1318" y2="870" gradientUnits="userSpaceOnUse">
      <stop offset="0" stop-color="#7ED8E6"/>
      <stop offset="0.52" stop-color="#4EAEBE"/>
      <stop offset="1" stop-color="#1D6273"/>
    </linearGradient>
    <linearGradient id="neonSoft" x1="0" y1="0" x2="1" y2="1">
      <stop offset="0" stop-color="#99E6F1"/>
      <stop offset="1" stop-color="#4EAEBE"/>
    </linearGradient>
    <linearGradient id="purpleLine" x1="760" y1="167" x2="1035" y2="167" gradientUnits="userSpaceOnUse">
      <stop offset="0" stop-color="#7ED8E6"/>
      <stop offset="1" stop-color="#B16BE3"/>
    </linearGradient>
    <filter id="panelGlow" x="86" y="111" width="1428" height="792" filterUnits="userSpaceOnUse" color-interpolation-filters="sRGB">
      <feDropShadow dx="0" dy="0" stdDeviation="18" flood-color="#7ED8E6" flood-opacity="0.22"/>
      <feDropShadow dx="0" dy="24" stdDeviation="32" flood-color="#000000" flood-opacity="0.35"/>
    </filter>
    <filter id="orbGlow" x="592" y="300" width="416" height="416" filterUnits="userSpaceOnUse" color-interpolation-filters="sRGB">
      <feGaussianBlur stdDeviation="26" result="blur"/>
      <feMerge>
        <feMergeNode in="blur"/>
        <feMergeNode in="SourceGraphic"/>
      </feMerge>
    </filter>
    <style>
      .title { font: 800 34px 'Segoe UI', Arial, sans-serif; fill: #F4FBFD; letter-spacing: 1px; }
      .subtitle { font: 800 24px 'Segoe UI', Arial, sans-serif; fill: #D7F8FC; letter-spacing: 1px; }
      .panelhead { font: 800 20px 'Segoe UI', Arial, sans-serif; fill: #F4FBFD; letter-spacing: 1px; text-transform: uppercase; }
      .label { font: 700 18px 'Segoe UI', Arial, sans-serif; fill: #F4FBFD; }
      .copy { font: 600 15px 'Segoe UI', Arial, sans-serif; fill: #CBEFF5; }
      .small { font: 700 13px 'Segoe UI', Arial, sans-serif; fill: #DDF7FB; letter-spacing: 1px; text-transform: uppercase; }
      .tiny { font: 600 12px 'Segoe UI', Arial, sans-serif; fill: #A9DDE7; }
      .stat { font: 800 24px 'Segoe UI', Arial, sans-serif; fill: #FFFFFF; }
      .statlabel { font: 700 12px 'Segoe UI', Arial, sans-serif; fill: #D5F4F8; letter-spacing: 2px; text-transform: uppercase; }
    </style>
  </defs>

  <rect width="1600" height="1000" rx="40" fill="url(#bg)"/>

  <g opacity="0.42">
    <path d="M126 120H1472" stroke="#6AA4B0" stroke-opacity="0.25" stroke-width="2"/>
    <path d="M126 858H1472" stroke="#6AA4B0" stroke-opacity="0.25" stroke-width="2"/>
    <path d="M160 96V885" stroke="#6AA4B0" stroke-opacity="0.18" stroke-width="2"/>
    <path d="M1440 96V885" stroke="#6AA4B0" stroke-opacity="0.18" stroke-width="2"/>
  </g>

  <g filter="url(#panelGlow)">
    <rect x="135" y="96" width="1330" height="794" rx="30" stroke="#8BE0EC" stroke-width="3"/>
  </g>

  <rect x="340" y="96" width="920" height="120" rx="18" fill="#312E33" fill-opacity="0.7" stroke="#C6EEF6" stroke-width="3"/>
  <text x="800" y="146" text-anchor="middle" class="title">THE ADVANCED HUMAN-CENTRIC ECOSYSTEM:</text>
  <text x="800" y="186" text-anchor="middle" class="subtitle">MY DATA, CONNECTED AND UNDERSTANDABLE</text>
  <rect x="958" y="197" width="246" height="6" rx="3" fill="url(#purpleLine)"/>

  <rect x="122" y="246" width="346" height="84" rx="20" fill="#3E424B" fill-opacity="0.72" stroke="#BEEAF1" stroke-width="3"/>
  <text x="295" y="281" text-anchor="middle" class="panelhead">FOUNDATIONAL</text>
  <text x="295" y="308" text-anchor="middle" class="panelhead">HUMAN INPUTS</text>

  <rect x="498" y="246" width="336" height="84" rx="20" fill="#3E424B" fill-opacity="0.72" stroke="#BEEAF1" stroke-width="3"/>
  <text x="666" y="281" text-anchor="middle" class="panelhead">ADVANCED FULL-STACK</text>
  <text x="666" y="308" text-anchor="middle" class="panelhead">ARCHITECTURE (MERN+)</text>

  <rect x="860" y="246" width="340" height="84" rx="20" fill="#3E424B" fill-opacity="0.72" stroke="#BEEAF1" stroke-width="3"/>
  <text x="1030" y="281" text-anchor="middle" class="panelhead">MULTI-PLATFORM MOBILE</text>
  <text x="1030" y="308" text-anchor="middle" class="panelhead">ECOSYSTEM (FLUTTER+)</text>

  <rect x="1228" y="246" width="258" height="84" rx="20" fill="#3E424B" fill-opacity="0.72" stroke="#BEEAF1" stroke-width="3"/>
  <text x="1357" y="281" text-anchor="middle" class="panelhead">INTERNET OF ALL</text>
  <text x="1357" y="308" text-anchor="middle" class="panelhead">HUMAN DEVICES</text>

  <path d="M296 331V432L612 486" stroke="url(#neon)" stroke-width="5" stroke-linecap="round" stroke-dasharray="8 14"/>
  <path d="M666 331V412L705 430" stroke="url(#neon)" stroke-width="5" stroke-linecap="round" stroke-dasharray="8 14"/>
  <path d="M1030 331V412L892 446" stroke="url(#neon)" stroke-width="5" stroke-linecap="round" stroke-dasharray="8 14"/>
  <path d="M1357 331V452L982 511" stroke="url(#neon)" stroke-width="5" stroke-linecap="round" stroke-dasharray="8 14"/>
  <path d="M800 666V788" stroke="url(#neon)" stroke-width="6" stroke-linecap="round" stroke-dasharray="8 14"/>

  <g>
    <rect x="108" y="360" width="402" height="292" rx="26" fill="#1B2737" fill-opacity="0.62" stroke="#8EE1EC" stroke-width="3"/>
    <rect x="144" y="394" width="122" height="156" rx="20" fill="#22384B" stroke="#7ED8E6" stroke-width="2"/>
    <circle cx="205" cy="453" r="36" fill="#243D53"/>
    <path d="M183 486C189 470 205 462 223 462C239 462 252 471 258 486" stroke="#7ED8E6" stroke-width="4" stroke-linecap="round"/>
    <circle cx="205" cy="445" r="18" fill="#7ED8E6"/>
    <rect x="161" y="510" width="88" height="12" rx="6" fill="#88E1ED" fill-opacity="0.32"/>
    <text x="302" y="422" class="label">Basic Computer Skills</text>
    <text x="302" y="454" class="copy">Windows, Office and</text>
    <text x="302" y="478" class="copy">digital literacy foundations</text>
    <text x="302" y="518" class="small">Foundational learner input</text>
    <rect x="302" y="533" width="156" height="14" rx="7" fill="#8ADFEB" fill-opacity="0.24"/>
    <text x="302" y="582" class="tiny">Build confidence for study, work and internet use</text>
    <rect x="148" y="576" width="116" height="46" rx="14" fill="#22384B" stroke="#7ED8E6" stroke-width="2"/>
    <text x="206" y="605" text-anchor="middle" class="tiny">Beginner</text>
    <rect x="284" y="576" width="126" height="46" rx="14" fill="#22384B" stroke="#7ED8E6" stroke-width="2"/>
    <text x="347" y="605" text-anchor="middle" class="tiny">Job-ready basics</text>
  </g>

  <g>
    <rect x="500" y="346" width="272" height="160" rx="22" fill="#1B2737" fill-opacity="0.68" stroke="#8EE1EC" stroke-width="3"/>
    <text x="530" y="387" class="label">Full-Stack Development</text>
    <rect x="530" y="408" width="62" height="38" rx="10" fill="#22384B" stroke="#7ED8E6" stroke-width="2"/>
    <text x="561" y="431" text-anchor="middle" class="tiny">React</text>
    <rect x="602" y="408" width="82" height="38" rx="10" fill="#22384B" stroke="#7ED8E6" stroke-width="2"/>
    <text x="643" y="431" text-anchor="middle" class="tiny">Node.js</text>
    <rect x="694" y="408" width="48" height="38" rx="10" fill="#22384B" stroke="#7ED8E6" stroke-width="2"/>
    <text x="718" y="431" text-anchor="middle" class="tiny">API</text>
    <rect x="530" y="458" width="108" height="38" rx="10" fill="#22384B" stroke="#7ED8E6" stroke-width="2"/>
    <text x="584" y="481" text-anchor="middle" class="tiny">MongoDB</text>
    <rect x="648" y="458" width="94" height="38" rx="10" fill="#22384B" stroke="#7ED8E6" stroke-width="2"/>
    <text x="695" y="481" text-anchor="middle" class="tiny">Projects</text>
  </g>

  <g filter="url(#orbGlow)">
    <circle cx="800" cy="525" r="132" fill="#9D6CE0" fill-opacity="0.14"/>
    <circle cx="800" cy="525" r="112" fill="url(#neon)" fill-opacity="0.96"/>
    <circle cx="800" cy="525" r="92" fill="#203246"/>
    <text x="800" y="499" text-anchor="middle" class="label">CENTRAL</text>
    <text x="800" y="530" text-anchor="middle" class="label">DATA CORE</text>
    <text x="800" y="562" text-anchor="middle" class="tiny">(Livate Academy super system)</text>
  </g>

  <g>
    <rect x="888" y="350" width="276" height="246" rx="24" fill="#1B2737" fill-opacity="0.68" stroke="#8EE1EC" stroke-width="3"/>
    <rect x="980" y="392" width="94" height="154" rx="26" fill="#22384B" stroke="#7ED8E6" stroke-width="3"/>
    <rect x="997" y="416" width="60" height="90" rx="12" fill="#E9FAFC"/>
    <path d="M1010 470L1037 443L1058 452L1020 498L1008 488L1035 447L1058 457" stroke="url(#neon)" stroke-width="10" stroke-linecap="round" stroke-linejoin="round"/>
    <text x="918" y="392" class="label">Mobile App Development</text>
    <text x="918" y="424" class="copy">Flutter and Dart for modern</text>
    <text x="918" y="448" class="copy">cross-platform learning</text>
    <rect x="918" y="475" width="160" height="14" rx="7" fill="#8ADFEB" fill-opacity="0.24"/>
    <text x="918" y="526" class="small">Android and iOS delivery</text>
    <rect x="918" y="542" width="120" height="38" rx="10" fill="#22384B" stroke="#7ED8E6" stroke-width="2"/>
    <text x="978" y="565" text-anchor="middle" class="tiny">UI Layouts</text>
  </g>

  <g>
    <rect x="1208" y="360" width="282" height="292" rx="26" fill="#1B2737" fill-opacity="0.62" stroke="#8EE1EC" stroke-width="3"/>
    <rect x="1241" y="404" width="102" height="82" rx="18" fill="#22384B" stroke="#7ED8E6" stroke-width="2"/>
    <rect x="1265" y="429" width="54" height="32" rx="6" fill="#E9FAFC"/>
    <path d="M1292 402V380" stroke="#7ED8E6" stroke-width="3" stroke-linecap="round"/>
    <circle cx="1292" cy="374" r="10" fill="#7ED8E6"/>
    <rect x="1358" y="404" width="102" height="82" rx="18" fill="#22384B" stroke="#7ED8E6" stroke-width="2"/>
    <circle cx="1409" cy="445" r="22" fill="#2A4A60" stroke="#7ED8E6" stroke-width="3"/>
    <circle cx="1409" cy="445" r="8" fill="#7ED8E6"/>
    <rect x="1241" y="504" width="219" height="110" rx="18" fill="#22384B" stroke="#7ED8E6" stroke-width="2"/>
    <text x="1265" y="539" class="label">IoT Development</text>
    <text x="1265" y="570" class="copy">Arduino, ESP32 and</text>
    <text x="1265" y="594" class="copy">sensor-driven systems</text>
  </g>

  <g>
    <rect x="620" y="764" width="360" height="84" rx="22" fill="#1B2737" fill-opacity="0.7" stroke="#8EE1EC" stroke-width="3"/>
    <text x="800" y="798" text-anchor="middle" class="label">SUPER SYSTEM: DIGITAL MARKETING + CAREER READINESS</text>
    <text x="800" y="828" text-anchor="middle" class="copy">Branding, portfolios, CV support and launch confidence</text>
  </g>

  <g>
    <rect x="196" y="704" width="136" height="74" rx="20" fill="#22384B" stroke="#7ED8E6" stroke-width="2"/>
    <text x="264" y="736" text-anchor="middle" class="stat">500+</text>
    <text x="264" y="760" text-anchor="middle" class="statlabel">graduates</text>

    <rect x="350" y="704" width="136" height="74" rx="20" fill="#22384B" stroke="#7ED8E6" stroke-width="2"/>
    <text x="418" y="736" text-anchor="middle" class="stat">9</text>
    <text x="418" y="760" text-anchor="middle" class="statlabel">bootcamps</text>

    <rect x="1116" y="704" width="136" height="74" rx="20" fill="#22384B" stroke="#7ED8E6" stroke-width="2"/>
    <text x="1184" y="736" text-anchor="middle" class="stat">15</text>
    <text x="1184" y="760" text-anchor="middle" class="statlabel">tech events</text>

    <rect x="1270" y="704" width="136" height="74" rx="20" fill="#22384B" stroke="#7ED8E6" stroke-width="2"/>
    <text x="1338" y="736" text-anchor="middle" class="stat">1</text>
    <text x="1338" y="760" text-anchor="middle" class="statlabel">campus hub</text>
  </g>

  <rect x="346" y="906" width="908" height="48" rx="16" fill="#2A2D34" fill-opacity="0.72" stroke="#BEEAF1" stroke-width="2"/>
  <text x="800" y="937" text-anchor="middle" fill="#EAFBFD" font-size="24" font-weight="800" font-family="Segoe UI, Arial, sans-serif">
    A WORLD OF CONNECTED HUMAN POSSIBILITIES USING MY DATA
  </text>
</svg>
